<?xml version="1.0" encoding="UTF-8"?>
<svg width="71px" height="23px" viewBox="0 0 71 23" xmlns="http://www.w3.org/2000/svg" xmlns:xlink="http://www.w3.org/1999/xlink" version="1.1">
 <!-- Generated by Pixelmator Pro Demo 2.0.8 -->
 <g id="Ebene_2">
  <g id="TestDaF">
   <path id="Pfad" d="M14.82 12.35 L14.27 11.8 14.27 13.92 Z" fill="#56a7d6" fill-opacity="1" stroke="none"/>
   <path id="Pfad-1" d="M14.27 13.92 L14.27 14.62 16.27 13.81 14.82 12.35 Z" fill="#008ac7" fill-opacity="1" stroke="none"/>
   <path id="Pfad-2" d="M18.13 13.65 L18.13 13.05 17.44 13.33 Z" fill="#008ec8" fill-opacity="1" stroke="none"/>
   <path id="Pfad-3" d="M17.44 13.33 L16.27 13.81 14.82 12.35 14.91 12.11 Z" fill="#009ad2" fill-opacity="1" stroke="none"/>
   <path id="Pfad-4" d="M14.27 11.8 L14.82 12.35 14.91 12.11 Z" fill="#008ec8" fill-opacity="1" stroke="none"/>
   <path id="Pfad-5" d="M18.13 13.05 L17.44 13.33 14.27 11.8 18.13 11.8 Z" fill="#56a7d6" fill-opacity="1" stroke="none"/>
   <path id="Pfad-6" d="M14.91 12.11 L15.03 11.8 14.27 11.8 Z" fill="#449cd0" fill-opacity="1" stroke="none"/>
   <path id="Pfad-7" d="M17.39 14.93 L16.27 13.81 14.3 14.61 14.27 14.62 14.27 15.65 18.11 15.65 Z" fill="#007ab5" fill-opacity="1" stroke="none"/>
   <path id="Pfad-8" d="M17.39 14.93 L18.11 15.65 18.13 15.65 18.13 15 Z" fill="#3ea3d5" fill-opacity="1" stroke="none"/>
   <path id="Pfad-9" d="M18.13 15 L18.13 13.65 17.44 13.33 16.27 13.81 17.39 14.93 Z" fill="#3ea3d5" fill-opacity="1" stroke="none"/>
   <path id="Pfad-10" d="M36.18 15.1 L36.73 15.65 36.73 13.53 Z" fill="#78c6bf" fill-opacity="1" stroke="none"/>
   <path id="Pfad-11" d="M36.73 13.53 L36.73 12.83 34.73 13.64 36.18 15.1 Z" fill="#4db5ae" fill-opacity="1" stroke="none"/>
   <path id="Pfad-12" d="M32.88 13.79 L32.88 14.4 33.56 14.12 Z" fill="#a6d5c2" fill-opacity="1" stroke="none"/>
   <path id="Pfad-13" d="M32.89 11.8 L34.73 13.64 36.73 12.83 36.73 11.8 Z" fill="#65c1be" fill-opacity="1" stroke="none"/>
   <path id="Pfad-14" d="M33.56 14.12 L34.73 13.64 36.18 15.1 36.09 15.34 Z" fill="#69bab2" fill-opacity="1" stroke="none"/>
   <path id="Pfad-15" d="M36.73 15.65 L36.18 15.1 36.09 15.34 Z" fill="#89c6c6" fill-opacity="1" stroke="none"/>
   <path id="Pfad-16" d="M32.88 14.4 L33.56 14.12 36.73 15.65 32.89 15.65 Z" fill="#97d1ca" fill-opacity="1" stroke="none"/>
   <path id="Pfad-17" d="M36.09 15.34 L35.97 15.65 36.73 15.65 Z" fill="#a4d7de" fill-opacity="1" stroke="none"/>
   <path id="Pfad-18" d="M34.73 13.64 L32.89 11.8 32.88 11.8 32.88 13.79 33.56 14.12 Z" fill="#78c6bf" fill-opacity="1" stroke="none"/>
   <path id="Pfad-19" d="M52.47 14.56 L51.03 15.12 50.49 15.65 53.56 15.65 Z" fill="#f9b240" fill-opacity="1" stroke="none"/>
   <path id="Pfad-20" d="M52.47 14.56 L52.03 14.12 51.03 15.12 Z" fill="#f7a831" fill-opacity="1" stroke="none"/>
   <path id="Pfad-21" d="M52.47 14.56 L53.56 15.65 54.35 15.65 54.35 13.82 Z" fill="#f7a71f" fill-opacity="1" stroke="none"/>
   <path id="Pfad-22" d="M50.49 15.32 L50.49 15.65 51.03 15.12 Z" fill="#f5a222" fill-opacity="1" stroke="none"/>
   <path id="Pfad-23" d="M51.03 15.12 L52.03 14.12 50.49 12.58 50.49 15.32 Z" fill="#f3920a" fill-opacity="1" stroke="none"/>
   <path id="Pfad-24" d="M54.35 11.79 L52.91 11.79 53.91 12.24 Z" fill="#f7a831" fill-opacity="1" stroke="none"/>
   <path id="Pfad-25" d="M53.91 12.24 L52.03 14.12 52.47 14.56 54.35 13.82 54.35 12.44 Z" fill="#f9b231" fill-opacity="1" stroke="none"/>
   <path id="Pfad-26" d="M50.49 11.79 L50.49 12.58 52.03 14.12 53.91 12.24 52.91 11.79 Z" fill="#f59d21" fill-opacity="1" stroke="none"/>
   <path id="Pfad-27" d="M54.35 12.44 L54.35 11.79 53.91 12.24 Z" fill="#fac074" fill-opacity="1" stroke="none"/>
   <path id="Pfad-28" d="M69.99 14.45 L69.39 15.05 69.99 15.65 Z" fill="#ed695a" fill-opacity="1" stroke="none"/>
   <path id="Pfad-29" d="M69.99 15.65 L69.39 15.05 68.78 15.65 Z" fill="#e94d2a" fill-opacity="1" stroke="none"/>
   <path id="Pfad-30" d="M66.14 13.43 L66.14 15.65 68.78 15.65 69.39 15.05 67.21 12.87 Z" fill="#e6301f" fill-opacity="1" stroke="none"/>
   <path id="Pfad-31" d="M67.21 12.87 L66.14 11.8 66.14 13.43 Z" fill="#ea4e3b" fill-opacity="1" stroke="none"/>
   <path id="Pfad-32" d="M67.19 11.8 L66.14 11.8 67.21 12.87 68.39 12.26 Z" fill="#ed695a" fill-opacity="1" stroke="none"/>
   <path id="Pfad-33" d="M68.39 12.26 L67.21 12.87 69.39 15.05 69.99 14.45 69.99 12.87 Z" fill="#ea4d33" fill-opacity="1" stroke="none"/>
   <path id="Pfad-34" d="M67.19 11.8 L68.39 12.26 69.26 11.8 Z" fill="#e83f29" fill-opacity="1" stroke="none"/>
   <path id="Pfad-35" d="M69.26 11.8 L68.39 12.26 69.99 12.87 69.99 11.8 Z" fill="#e3000b" fill-opacity="1" stroke="none"/>
   <path id="Pfad-36" d="M12.7 2.86 L12.83 5.1 10.83 4.77 C11.059 5.864 11.153 6.983 11.11 8.1 10.831 9.421 10.012 10.566 8.852 11.257 7.691 11.949 6.295 12.124 5 11.74 4.507 11.597 3.975 11.74 3.62 12.11 2.9 12.79 3.06 13.65 4.01 13.89 4.691 14.011 5.379 14.081 6.07 14.1 7.376 14.129 8.678 14.239 9.97 14.43 12.83 15.03 13.7 17.9 11.74 20.08 10.108 21.801 7.753 22.64 5.4 22.34 4.287 22.257 3.194 22.001 2.16 21.58 0.831 21.148 -0.051 19.887 -0 18.49 0.132 17.096 1.188 15.966 2.57 15.74 1.67 15.12 0.9 14.46 1.09 13.28 1.28 12.1 2.09 11.63 3.09 11.13 2.16 10.482 1.491 9.525 1.2 8.43 0.824 7.04 1.11 5.553 1.975 4.402 2.841 3.251 4.19 2.564 5.63 2.54 6.761 2.635 7.885 2.788 9 3 9.976 3.05 10.954 3.05 11.93 3 12.15 3 12.36 2.9 12.7 2.86 Z M6.38 16.16 C5.87 16.16 5.23 16.16 4.59 16.16 3.515 16.25 2.597 16.975 2.26 18 2.11 18.8 2.7 19.64 3.78 20.1 4.931 20.621 6.224 20.737 7.45 20.43 8.329 20.234 9.155 19.848 9.87 19.3 10.397 18.924 10.636 18.261 10.472 17.635 10.307 17.009 9.774 16.549 9.13 16.48 8.22 16.325 7.302 16.218 6.38 16.16 Z M9 7.19 C9.081 6.418 8.818 5.65 8.28 5.091 7.742 4.532 6.984 4.239 6.21 4.29 5.433 4.249 4.676 4.541 4.128 5.092 3.58 5.644 3.293 6.404 3.34 7.18 3.278 7.967 3.566 8.742 4.126 9.298 4.687 9.855 5.463 10.137 6.25 10.07 7.014 10.108 7.756 9.813 8.284 9.26 8.812 8.707 9.074 7.951 9 7.19 Z" fill="#333333" fill-opacity="1" stroke="none"/>
   <path id="Pfad-37" d="M31.08 15.81 C29.58 15.95 28.37 15.67 27.73 14.17 26.914 15.126 25.775 15.748 24.53 15.92 22.689 16.159 20.931 15.08 20.31 13.33 19.714 11.534 20.653 9.59 22.43 8.94 23.888 8.455 25.383 8.087 26.9 7.84 27.133 7.815 27.367 7.815 27.6 7.84 27.99 5.84 27.05 4.71 25.11 4.63 23.57 4.664 22.07 5.128 20.78 5.97 20.626 5.448 20.506 4.917 20.42 4.38 20.411 4.139 20.519 3.908 20.71 3.76 22.699 2.494 25.136 2.145 27.4 2.8 29.11 3.32 29.94 4.69 30 7 L30 12.53 C30 13.77 30 13.77 31.13 14.05 L31.13 15.32 C31.12 15.44 31.1 15.6 31.08 15.81 Z M27.71 9.25 C27.259 9.281 26.812 9.344 26.37 9.44 25.374 9.694 24.401 10.028 23.46 10.44 22.684 10.848 22.336 11.772 22.65 12.59 22.865 13.332 23.519 13.863 24.29 13.92 25.247 14.079 26.227 13.836 27 13.25 27.28 13.04 27.64 12.72 27.67 12.42 27.76 11.4 27.71 10.36 27.71 9.25 Z" fill="#333333" fill-opacity="1" stroke="none"/>
   <path id="Pfad-38" d="M47.76 3.37 L47.23 5.29 C46.09 5.04 45.02 4.75 43.93 4.59 43.377 4.51 42.812 4.586 42.3 4.81 41.881 5.054 41.565 5.441 41.41 5.9 41.224 6.468 41.507 7.083 42.06 7.31 42.88 7.68 43.75 7.95 44.59 8.31 45.04 8.47 45.51 8.61 45.94 8.81 47.239 9.288 48.101 10.526 48.1 11.91 48.173 13.344 47.387 14.684 46.1 15.32 43.78 16.53 41.49 16.05 39.26 15.01 39.097 14.902 39.002 14.716 39.01 14.52 39.12 13.95 39.3 13.4 39.43 12.94 40.477 13.309 41.546 13.613 42.63 13.85 43.34 13.912 44.055 13.844 44.74 13.65 45.392 13.495 45.856 12.92 45.87 12.25 45.92 11.611 45.541 11.015 44.94 10.79 44.356 10.532 43.758 10.305 43.15 10.11 42.44 9.879 41.743 9.612 41.06 9.31 39.918 8.831 39.171 7.718 39.16 6.48 39.066 5.136 39.761 3.861 40.94 3.21 42.497 2.385 44.321 2.223 46 2.76 46.597 2.934 47.184 3.137 47.76 3.37 Z" fill="#333333" fill-opacity="1" stroke="none"/>
   <path id="Pfad-39" d="M57.8 2.77 C57.8 2.22 57.8 0.59 57.8 0 L60 0 60 2.83 63.93 2.83 63.8 4.92 59.8 4.92 59.8 10.11 C59.8 10.73 59.8 11.34 59.75 11.96 59.75 13.39 60.42 14.04 61.84 13.84 62.44 13.76 63.03 13.6 63.7 13.46 L64.1 15.38 C62.661 16.006 61.047 16.109 59.54 15.67 58.26 15.25 57.54 14.1 57.54 12.41 57.54 10.22 57.64 8.03 57.69 5.84 57.69 5.57 57.69 5.31 57.69 4.98 57.02 4.9 56.39 4.91 55.69 4.83 L55.69 3.22 Z" fill="#333333" fill-opacity="1" stroke="none"/>
  </g>
 </g>
</svg>
