<svg width="352" height="125" viewBox="0 0 352 125" fill="none" xmlns="http://www.w3.org/2000/svg">
<path d="M14.642 46V11.0909H23.0795V39.1477H37.6023V46H14.642ZM41.9702 46V19.8182H50.3054V46H41.9702ZM46.1463 16.767C44.9759 16.767 43.9702 16.3807 43.1293 15.608C42.2884 14.8239 41.8679 13.8807 41.8679 12.7784C41.8679 11.6875 42.2884 10.7557 43.1293 9.98295C43.9702 9.19886 44.9759 8.80682 46.1463 8.80682C47.3281 8.80682 48.3338 9.19886 49.1634 9.98295C50.0043 10.7557 50.4247 11.6875 50.4247 12.7784C50.4247 13.8807 50.0043 14.8239 49.1634 15.608C48.3338 16.3807 47.3281 16.767 46.1463 16.767ZM63.1278 39.1307L63.1619 29.1932H64.321L71.6847 19.8182H81.1278L70.1847 33.25H67.9858L63.1278 39.1307ZM55.6108 46V11.0909H63.946V46H55.6108ZM71.8722 46L65.0199 35.125L70.5085 29.2102L81.5028 46H71.8722ZM95.2713 46.4943C92.5327 46.4943 90.169 45.9545 88.1804 44.875C86.2031 43.7841 84.6804 42.233 83.6122 40.2216C82.5554 38.1989 82.027 35.7955 82.027 33.0114C82.027 30.3068 82.5611 27.9432 83.6293 25.9205C84.6974 23.8864 86.2031 22.3068 88.1463 21.1818C90.0895 20.0455 92.3793 19.4773 95.0156 19.4773C96.8793 19.4773 98.5838 19.767 100.129 20.3466C101.675 20.9261 103.01 21.7841 104.135 22.9205C105.26 24.0568 106.135 25.4602 106.76 27.1307C107.385 28.7898 107.697 30.6932 107.697 32.8409V34.9205H84.9418V30.0795H99.9418C99.9304 29.1932 99.7202 28.4034 99.3111 27.7102C98.902 27.017 98.3395 26.4773 97.6236 26.0909C96.919 25.6932 96.1065 25.4943 95.1861 25.4943C94.2543 25.4943 93.419 25.7045 92.6804 26.125C91.9418 26.5341 91.3565 27.0966 90.9247 27.8125C90.4929 28.517 90.2656 29.3182 90.2429 30.2159V35.142C90.2429 36.2102 90.4531 37.1477 90.8736 37.9545C91.294 38.75 91.8906 39.3693 92.6634 39.8125C93.4361 40.2557 94.3565 40.4773 95.4247 40.4773C96.1634 40.4773 96.8338 40.375 97.4361 40.1705C98.0384 39.9659 98.5554 39.6648 98.9872 39.267C99.419 38.8693 99.7429 38.3807 99.9588 37.8011L107.612 38.0227C107.294 39.7386 106.595 41.233 105.516 42.5057C104.447 43.767 103.044 44.75 101.305 45.4545C99.5668 46.1477 97.5554 46.4943 95.2713 46.4943ZM111.955 46V19.8182H120.051V24.5909H120.324C120.801 22.8636 121.58 21.5795 122.659 20.7386C123.739 19.8864 124.994 19.4602 126.426 19.4602C126.813 19.4602 127.21 19.4886 127.619 19.5455C128.028 19.5909 128.409 19.6648 128.761 19.767V27.0114C128.364 26.875 127.841 26.767 127.193 26.6875C126.557 26.608 125.989 26.5682 125.489 26.5682C124.5 26.5682 123.608 26.7898 122.812 27.233C122.028 27.6648 121.409 28.2727 120.955 29.0568C120.511 29.8295 120.29 30.7386 120.29 31.7841V46H111.955ZM148.155 19.8182V25.9545H131.638V19.8182H148.155ZM135.098 13.5455H143.433V37.767C143.433 38.2784 143.513 38.6932 143.672 39.0114C143.842 39.3182 144.087 39.5398 144.405 39.6761C144.723 39.8011 145.104 39.8636 145.547 39.8636C145.865 39.8636 146.2 39.8352 146.553 39.7784C146.916 39.7102 147.189 39.6534 147.371 39.608L148.632 45.625C148.234 45.7386 147.672 45.8807 146.945 46.0511C146.229 46.2216 145.371 46.3295 144.371 46.375C142.416 46.4659 140.74 46.2386 139.342 45.6932C137.956 45.1364 136.893 44.2727 136.155 43.1023C135.428 41.9318 135.075 40.4602 135.098 38.6875V13.5455Z" fill="#18181B"/>
<path d="M250.642 114V87.8182H258.568V92.625H258.858C259.403 91.0341 260.324 89.7784 261.619 88.858C262.915 87.9375 264.46 87.4773 266.256 87.4773C268.074 87.4773 269.631 87.9432 270.926 88.875C272.222 89.8068 273.045 91.0568 273.398 92.625H273.67C274.159 91.0682 275.114 89.8239 276.534 88.892C277.955 87.9489 279.631 87.4773 281.562 87.4773C284.04 87.4773 286.051 88.2727 287.597 89.8636C289.142 91.4432 289.915 93.6136 289.915 96.375V114H281.58V98.2841C281.58 96.9773 281.244 95.983 280.574 95.3011C279.903 94.608 279.034 94.2614 277.966 94.2614C276.818 94.2614 275.915 94.6364 275.256 95.3864C274.608 96.125 274.284 97.1193 274.284 98.3693V114H266.273V98.1989C266.273 96.983 265.943 96.0227 265.284 95.3182C264.625 94.6136 263.756 94.2614 262.676 94.2614C261.949 94.2614 261.307 94.4375 260.75 94.7898C260.193 95.1307 259.756 95.6193 259.438 96.2557C259.131 96.892 258.977 97.642 258.977 98.5057V114H250.642ZM302.46 114.443C300.79 114.443 299.307 114.165 298.011 113.608C296.727 113.04 295.71 112.187 294.96 111.051C294.222 109.903 293.852 108.466 293.852 106.739C293.852 105.284 294.108 104.057 294.619 103.057C295.131 102.057 295.835 101.244 296.733 100.619C297.631 99.9943 298.665 99.5227 299.835 99.2045C301.006 98.875 302.256 98.6534 303.585 98.5398C305.074 98.4034 306.273 98.2614 307.182 98.1136C308.091 97.9545 308.75 97.733 309.159 97.4489C309.58 97.1534 309.79 96.7386 309.79 96.2045V96.1193C309.79 95.2443 309.489 94.5682 308.886 94.0909C308.284 93.6136 307.472 93.375 306.449 93.375C305.347 93.375 304.46 93.6136 303.79 94.0909C303.119 94.5682 302.693 95.2273 302.511 96.0682L294.824 95.7955C295.051 94.2045 295.636 92.7841 296.58 91.5341C297.534 90.2727 298.841 89.2841 300.5 88.5682C302.17 87.8409 304.176 87.4773 306.517 87.4773C308.188 87.4773 309.727 87.6761 311.136 88.0739C312.545 88.4602 313.773 89.0284 314.818 89.7784C315.864 90.517 316.67 91.4261 317.239 92.5057C317.818 93.5852 318.108 94.8182 318.108 96.2045V114H310.267V110.352H310.062C309.597 111.239 309 111.989 308.273 112.602C307.557 113.216 306.71 113.676 305.733 113.983C304.767 114.29 303.676 114.443 302.46 114.443ZM305.034 108.989C305.932 108.989 306.739 108.807 307.455 108.443C308.182 108.08 308.761 107.58 309.193 106.943C309.625 106.295 309.841 105.545 309.841 104.693V102.205C309.602 102.33 309.313 102.443 308.972 102.545C308.642 102.648 308.278 102.744 307.881 102.835C307.483 102.926 307.074 103.006 306.653 103.074C306.233 103.142 305.83 103.205 305.443 103.261C304.659 103.386 303.989 103.58 303.432 103.841C302.886 104.102 302.466 104.443 302.17 104.864C301.886 105.273 301.744 105.761 301.744 106.33C301.744 107.193 302.051 107.852 302.665 108.307C303.29 108.761 304.08 108.989 305.034 108.989ZM337.983 87.8182V93.9545H321.466V87.8182H337.983ZM324.926 81.5455H333.261V105.767C333.261 106.278 333.341 106.693 333.5 107.011C333.67 107.318 333.915 107.54 334.233 107.676C334.551 107.801 334.932 107.864 335.375 107.864C335.693 107.864 336.028 107.835 336.381 107.778C336.744 107.71 337.017 107.653 337.199 107.608L338.46 113.625C338.063 113.739 337.5 113.881 336.773 114.051C336.057 114.222 335.199 114.33 334.199 114.375C332.244 114.466 330.568 114.239 329.17 113.693C327.784 113.136 326.722 112.273 325.983 111.102C325.256 109.932 324.903 108.46 324.926 106.688V81.5455Z" fill="#18181B"/>
<line x1="5" y1="66" x2="347" y2="66" stroke="#18181B" stroke-width="10" stroke-linecap="round"/>
<circle cx="198.5" cy="68.5" r="35.5" fill="#FFCE52"/>
<path d="M215.5 68C215.5 77.665 207.665 85.5 198 85.5C188.335 85.5 180.5 77.665 180.5 68C180.5 58.335 188.335 50.5 198 50.5C207.665 50.5 215.5 58.335 215.5 68Z" stroke="#18181B" stroke-width="9"/>
</svg>
